<svg width="200" height="86" viewBox="0 0 200 86" fill="none" xmlns="http://www.w3.org/2000/svg">
<mask id="path-1-inside-1" fill="white">
<path fill-rule="evenodd" clip-rule="evenodd" d="M200 59.9248C196.686 59.9248 194 57.2385 194 53.9248C194 50.6111 196.686 47.9248 200 47.9248L200 47.9248L200 -0.0761719L3.05176e-05 -0.0761369L4.36782e-05 47.9247C3.31364 47.9248 5.9998 50.611 5.9998 53.9247C5.9998 57.2383 3.31364 59.9245 4.31536e-05 59.9247L4.20172e-05 85.9239L200 85.9238L200 59.9248L200 59.9248Z"/>
</mask>
<path fill-rule="evenodd" clip-rule="evenodd" d="M200 59.9248C196.686 59.9248 194 57.2385 194 53.9248C194 50.6111 196.686 47.9248 200 47.9248L200 47.9248L200 -0.0761719L3.05176e-05 -0.0761369L4.36782e-05 47.9247C3.31364 47.9248 5.9998 50.611 5.9998 53.9247C5.9998 57.2383 3.31364 59.9245 4.31536e-05 59.9247L4.20172e-05 85.9239L200 85.9238L200 59.9248L200 59.9248Z" fill="url(#paint0_linear)"/>
<path d="M200 47.9248L200 48.9248L201 48.9248L201 47.9248L200 47.9248ZM200 -0.0761719L201 -0.076172L201 -1.07617L200 -1.07617L200 -0.0761719ZM3.05176e-05 -0.0761369L3.05613e-05 -1.07614L-0.999969 -1.07614L-0.999969 -0.0761366L3.05176e-05 -0.0761369ZM4.36782e-05 47.9247L-0.999956 47.9247L-0.999956 48.9246L1.31169e-05 48.9247L4.36782e-05 47.9247ZM4.31536e-05 59.9247L1.26798e-05 58.9247L-0.999957 58.9247L-0.999957 59.9247L4.31536e-05 59.9247ZM4.20172e-05 85.9239L-0.999958 85.9239L-0.999958 86.9239L4.19735e-05 86.9239L4.20172e-05 85.9239ZM200 85.9238L200 86.9238L201 86.9238L201 85.9238L200 85.9238ZM200 59.9248L201 59.9248L201 58.9248L200 58.9248L200 59.9248ZM193 53.9248C193 57.7908 196.134 60.9248 200 60.9248L200 58.9248C197.238 58.9248 195 56.6862 195 53.9248L193 53.9248ZM200 46.9248C196.134 46.9248 193 50.0588 193 53.9248L195 53.9248C195 51.1634 197.238 48.9248 200 48.9248L200 46.9248ZM200 46.9248L200 46.9248L200 48.9248L200 48.9248L200 46.9248ZM199 -0.0761717L199 47.9248L201 47.9248L201 -0.076172L199 -0.0761717ZM3.04739e-05 0.923863L200 0.923828L200 -1.07617L3.05613e-05 -1.07614L3.04739e-05 0.923863ZM1.00004 47.9247L1.00003 -0.0761372L-0.999969 -0.0761366L-0.999956 47.9247L1.00004 47.9247ZM1.31169e-05 48.9247C2.76134 48.9248 4.9998 51.1633 4.9998 53.9247L6.9998 53.9247C6.9998 50.0588 3.86595 46.9248 8.94983e-05 46.9247L1.31169e-05 48.9247ZM4.9998 53.9247C4.9998 56.686 2.76133 58.9246 1.26798e-05 58.9247L8.88863e-05 60.9247C3.86595 60.9245 6.9998 57.7906 6.9998 53.9247L4.9998 53.9247ZM1.00004 85.9239L1.00004 59.9247L-0.999957 59.9247L-0.999958 85.9239L1.00004 85.9239ZM200 84.9238L4.20609e-05 84.9239L4.19735e-05 86.9239L200 86.9238L200 84.9238ZM199 59.9248L199 85.9238L201 85.9238L201 59.9248L199 59.9248ZM200 60.9248L200 60.9248L200 58.9248L200 58.9248L200 60.9248Z" fill="#FBE9E9" mask="url(#path-1-inside-1)"/>
<defs>
<linearGradient id="paint0_linear" x1="6.23374e-05" y1="-0.0761841" x2="186.843" y2="108.554" gradientUnits="userSpaceOnUse">
<stop stop-color="#FFF5F5"/>
<stop offset="1" stop-color="#FBE4E4"/>
</linearGradient>
</defs>
</svg>
